<?xml version="1.0" encoding="UTF-8" standalone="no"?>
<!-- Generator: Adobe Illustrator 22.1.0, SVG Export Plug-In . SVG Version: 6.00 Build 0) -->

<svg
   id="Layer_1"
   x="0px"
   y="0px"
   viewBox="0 0 231.99571 107.90001"
   xml:space="preserve"
   version="1.1"
   sodipodi:docname="logo.svg"
   width="231.99571"
   height="107.9"
   inkscape:version="1.3.2 (091e20e, 2023-11-25)"
   xmlns:inkscape="http://www.inkscape.org/namespaces/inkscape"
   xmlns:sodipodi="http://sodipodi.sourceforge.net/DTD/sodipodi-0.dtd"
   xmlns="http://www.w3.org/2000/svg"
   xmlns:svg="http://www.w3.org/2000/svg"
   xmlns:rdf="http://www.w3.org/1999/02/22-rdf-syntax-ns#"
   xmlns:cc="http://creativecommons.org/ns#"
   xmlns:dc="http://purl.org/dc/elements/1.1/"><defs
   id="defs43"><rect
     x="177.3298"
     y="6.4224072"
     width="125.95054"
     height="33.182438"
     id="rect43" /></defs><sodipodi:namedview
   id="namedview43"
   pagecolor="#ffffff"
   bordercolor="#000000"
   borderopacity="0.25"
   inkscape:showpageshadow="2"
   inkscape:pageopacity="0.0"
   inkscape:pagecheckerboard="0"
   inkscape:deskcolor="#d1d1d1"
   inkscape:zoom="3.468283"
   inkscape:cx="130.03553"
   inkscape:cy="85.633151"
   inkscape:window-width="1392"
   inkscape:window-height="847"
   inkscape:window-x="52"
   inkscape:window-y="25"
   inkscape:window-maximized="0"
   inkscape:current-layer="Layer_1" /> <title
   id="title1">YDSA with Lockup</title> <g
   id="g2"
   transform="translate(2.6623234e-4)"> <path
   fill="#ec1f27"
   d="m 75.5,65 -6.9,30.3 c -2.2,10.4 -4.5,12.6 -13.4,12.6 v -6.1 c 0.4,0.1 0.8,0.1 1,0.1 3.3,0 5.5,-2 5.5,-5.1 0,-0.8 -0.1,-1.5 -0.4,-2.8 L 54.2,65 h 6.2 L 65,86.5 69.4,65 Z"
   id="path1" /> <path
   fill="#ec1f27"
   d="M 90.1,96.5 V 93.4 C 87.5,95.9 85.4,97 83.1,97 80.8,97 79,95.9 78,93.8 77,91.6 76.7,89.4 76.7,84.6 V 77 c 0,-4.8 0.3,-7.1 1.3,-9.2 1,-2.1 2.8,-3.2 5.1,-3.2 2.3,0 4.4,1.1 7,3.6 v -14 H 96 v 42.4 h -5.9 z m 0,-25.2 c -1.6,-1.1 -2.8,-1.6 -4.1,-1.6 -1.2,0 -2.3,0.6 -2.7,1.7 -0.5,1.1 -0.6,1.9 -0.6,5.2 v 8.3 c 0,3.3 0.1,4.1 0.6,5.2 0.4,1 1.5,1.7 2.7,1.7 1.3,0 2.5,-0.4 4.1,-1.6 z"
   id="path2" /> </g> <g
   id="g3"
   transform="translate(2.6623234e-4)"> <path
   fill="#ec1f27"
   d="m 112.1,74.3 c -1.2,-3.3 -2.6,-4.6 -4.9,-4.6 -1.8,0 -3.1,1.1 -3.1,2.8 0,1.7 0.9,2.6 5.3,5 3.6,2 5.1,3 6.4,4.3 1.4,1.5 2.2,3.6 2.2,6 0,5.6 -3.9,9.3 -9.7,9.3 -5.4,0 -8.8,-2.8 -10.8,-8.9 l 5.5,-1.9 c 1.3,3.9 2.8,5.4 5.3,5.4 2,0 3.4,-1.3 3.4,-3.2 0,-1.8 -1,-2.9 -4.4,-4.8 -4.3,-2.4 -5.5,-3.2 -6.9,-4.7 -1.5,-1.5 -2.3,-3.7 -2.3,-6 0,-5.1 3.9,-8.8 9.2,-8.8 5,0 8.3,2.4 10.2,7.6 z"
   id="path3" /> </g> <g
   id="g4"
   transform="translate(2.6623234e-4)"> <path
   fill="#ec1f27"
   d="m 134.1,96.5 c -0.3,-0.9 -0.5,-2.2 -0.5,-3.7 -2.9,3.1 -4.6,4.1 -7.1,4.1 -4,0 -6.4,-3.2 -6.4,-8.4 0,-3.9 1.5,-6.4 5.1,-8.7 1.5,-1 3.1,-1.7 8.4,-4 v -1.7 c 0,-3.2 -0.9,-4.5 -3.1,-4.5 -2.2,0 -3.2,1.3 -3.5,4.5 h -6.2 c 0.5,-6.4 4.2,-9.7 10.5,-9.7 2.9,0 5,0.8 6.5,2.4 1.3,1.7 1.7,3.1 1.7,7 v 14 c 0,4.8 0.1,6.2 0.7,8.6 h -6.1 z m -0.5,-16.2 c -5.2,2.8 -7.3,5 -7.3,7.9 0,2.1 1.3,3.6 3,3.6 1.7,0 3.2,-1 4.3,-2.9 z"
   id="path4" /> </g> <path
   fill="#ec1f27"
   d="m 93.200266,0 c 2.8,0 4.8,28.1 5,35.1 0.1,1.3 -0.4,2.5 -1.1,3.5 -1.9,2.1 -5.2,2.3 -7.3,0.4 -0.2,-0.1 -0.3,-0.3 -0.4,-0.4 -0.8,-1 -1.2,-2.2 -1.1,-3.5 0.1,-7 2.2,-35.1 4.9,-35.1 z"
   id="path5" /> <path
   fill="#ec1f27"
   d="M 2.6623234e-4,90.1 C 0.10026623,87.3 28.300266,86.1 35.300266,86.1 c 1.3,0 2.5,0.4 3.5,1.3 2.1,2 2.2,5.199996 0.2,7.299996 -0.1,0.1 -0.3,0.3 -0.4,0.4 -1,0.7 -2.3,1.1 -3.5,1 -7.1,-0.4 -35.19999977,-3.2 -35.09999976766,-5.999996 z"
   id="path6" /> <path
   fill="#ec1f27"
   d="m 8.1002662,55 c 1.1,-2.5 27.6999998,7.3 34.0999998,9.9 1,0.4 1.9,1.1 2.5,2.1 1.4,2.5 0.5,5.6 -2,7 -0.3,0.2 -0.7,0.3 -1,0.4 -1.2,0.3 -2.5,0.2 -3.6,-0.4 -6.4,-3 -31.1999998,-16.4 -29.9999998,-19 z"
   id="path7" /> <path
   fill="#ec1f27"
   d="m 28.600266,26.1 c 2,-1.9 23,17 28,21.8 0.9,0.9 1.5,2.1 1.6,3.3 0.1,2.9 -2.1,5.3 -5,5.4 -0.2,0 -0.4,0 -0.6,0 -1.3,-0.2 -2.4,-0.8 -3.2,-1.7 -4.7,-5.2 -22.8,-26.9 -20.8,-28.8 z"
   id="path8" /> <path
   fill="#ec1f27"
   d="m 58.300266,6.7999998 c 2.6,-1 15,24.3000002 17.8,30.7000002 0.5,1.2 0.6,2.5 0.2,3.7 -0.9,2.7 -3.9,4.1 -6.6,3.1 -0.3,-0.1 -0.7,-0.3 -1,-0.5 -0.9,-0.6 -1.6,-1.5 -2,-2.6 -2.2,-6.4 -10.9,-33.3000002 -8.4,-34.4000002 z"
   id="path9" />                <metadata
   id="metadata46"><rdf:RDF><cc:Work
       rdf:about=""><dc:title>YDSA with Lockup</dc:title></cc:Work></rdf:RDF></metadata><path
   style="font-weight:bold;font-size:56.0202px;font-family:'Manifold DSA';-inkscape-font-specification:'Manifold DSA Bold';letter-spacing:-3.94795px;fill:#ec1f27;stroke-width:0.954892"
   d="m 203.36672,56.994999 c 2.76367,0 4.81774,0.896323 6.16222,2.688969 1.34449,1.792647 2.01673,4.238862 2.01673,7.338646 V 85.39724 h -6.21824 V 66.910574 c 0,-3.137131 -1.34449,-4.705697 -4.03346,-4.705697 -1.30713,0 -2.40886,0.317448 -3.30519,0.952344 -0.85897,0.634895 -1.62458,1.493872 -2.29682,2.576929 v 19.66309 h -6.21825 V 66.910574 c 0,-3.137131 -1.34448,-4.705697 -4.03345,-4.705697 -1.30714,0 -2.3902,0.317448 -3.24917,0.952344 -0.85898,0.634895 -1.64326,1.493872 -2.35285,2.576929 V 85.39724 H 173.62 v -28.0101 h 6.21824 v 4.089475 c 2.16611,-2.987744 4.81774,-4.481616 7.95487,-4.481616 1.64326,0 3.04376,0.392141 4.20151,1.176424 1.15775,0.784283 2.05408,1.886013 2.68897,3.305192 h 0.11204 c 0.85898,-1.195098 1.97938,-2.240808 3.36121,-3.137131 1.41918,-0.896323 3.15581,-1.344485 5.20988,-1.344485 z m 30.61652,28.402241 -9.4114,-13.052707 -2.80101,2.85703 V 85.39724 h -6.21824 V 47.94851 h 6.21824 V 68.255059 L 232.13457,57.38714 h 7.22661 l -10.86792,11.035979 12.15638,16.974121 z m 17.22774,0.392141 c -3.95876,0 -7.05854,-1.157751 -9.29935,-3.473252 -2.24081,-2.352849 -3.36122,-5.65804 -3.36122,-9.915575 v -2.240808 c 0,-4.332229 1.06439,-7.600074 3.19316,-9.803535 2.12877,-2.240808 5.09784,-3.361212 8.90721,-3.361212 3.77203,0 6.64773,1.064384 8.62711,3.193151 1.97938,2.091421 2.96907,5.172532 2.96907,9.243333 0,1.605913 -0.3548,2.707643 -1.06439,3.305192 -0.70959,0.560202 -1.92336,0.840303 -3.64131,0.840303 h -12.7726 c 0,2.502235 0.61622,4.313555 1.84866,5.433959 1.23245,1.120404 3.09979,1.680606 5.60202,1.680606 1.41918,0 2.68897,-0.186734 3.80938,-0.560202 1.15775,-0.373468 2.25948,-0.98969 3.30519,-1.848667 l 2.24081,3.417233 c -2.72632,2.726316 -6.1809,4.089474 -10.36374,4.089474 z m 5.20988,-16.581979 c 0,-2.464889 -0.50418,-4.257535 -1.51255,-5.377939 -0.97101,-1.157751 -2.39019,-1.736626 -4.25753,-1.736626 -1.82999,0 -3.26785,0.578875 -4.31356,1.736626 -1.04571,1.157751 -1.56856,2.950397 -1.56856,5.377939 z"
   id="text1"
   transform="scale(0.88464602,1.1303956)"
   aria-label="mke"
   sodipodi:nodetypes="sssccssccccsssccccccsscccscccccccccccccscsscscscscsscccsccsscc" /></svg>
